<svg xmlns="http://www.w3.org/2000/svg" xmlns:xlink="http://www.w3.org/1999/xlink" viewBox="0,0,256,256" width="50px" height="50px" fill-rule="nonzero"><g fill="#ffffff" fill-rule="nonzero" stroke="none" stroke-width="1" stroke-linecap="butt" stroke-linejoin="miter" stroke-miterlimit="10" stroke-dasharray="" stroke-dashoffset="0" font-family="none" font-weight="none" font-size="none" text-anchor="none" style="mix-blend-mode: normal"><g transform="scale(5.12,5.12)"><path d="M15,1c-0.55228,0 -1,0.44772 -1,1c0,0.55228 0.44772,1 1,1c0.55228,0 1,-0.44772 1,-1c0,-0.55228 -0.44772,-1 -1,-1zM28,2c-1.10457,0 -2,0.89543 -2,2c0,1.10457 0.89543,2 2,2c1.10457,0 2,-0.89543 2,-2c0,-1.10457 -0.89543,-2 -2,-2zM22,6c-4.457,0 -8.28955,2.87703 -9.56055,7.08203c-3.666,0.515 -6.43945,3.64097 -6.43945,7.41797c0,1.192 0.28322,2.35806 0.82422,3.41406c-1.181,1.429 -1.82422,3.20794 -1.82422,5.08594c0,3.673 2.52186,6.84619 6.00586,7.74219c-0.003,0.087 -0.00586,0.17281 -0.00586,0.25781c0,4.411 3.589,8 8,8c1.859,0 3.6093,-0.62616 5.0293,-1.78516c1.199,1.146 2.7797,1.78516 4.4707,1.78516c3.031,0 5.63731,-2.12895 6.32031,-5.00195c0.061,0.001 0.11969,0.00195 0.17969,0.00195c4.963,0 9,-4.038 9,-9c0,-1.739 -0.48702,-3.39484 -1.41602,-4.83984c0.909,-1.003 1.41602,-2.29516 1.41602,-3.66016c0,-2.53 -1.72294,-4.67383 -4.08594,-5.29883c0.057,-0.404 0.08594,-0.80517 0.08594,-1.20117c0,-4.962 -4.037,-9 -9,-9c-1.191,0 -2.34827,0.23336 -3.44727,0.69336c-1.651,-1.11 -3.55873,-1.69336 -5.55273,-1.69336zM9.5,8c-0.82843,0 -1.5,0.67157 -1.5,1.5c0,0.82843 0.67157,1.5 1.5,1.5c0.82843,0 1.5,-0.67157 1.5,-1.5c0,-0.82843 -0.67157,-1.5 -1.5,-1.5zM44,13c-1.10457,0 -2,0.89543 -2,2c0,1.10457 0.89543,2 2,2c1.10457,0 2,-0.89543 2,-2c0,-1.10457 -0.89543,-2 -2,-2zM26.94141,15c1.282,0 2.36397,0.81041 2.79297,1.94141c0.019,0.05 0.07719,0.0653 0.11719,0.0293c0.716,-0.638 1.66684,-0.9668 2.71484,-0.9668c1.25,0 2.43359,0.86914 2.43359,2.86914c0,2.25 -1.375,4.25 -3.5,9.125c-0.206,0.472 -0.5,1.304 -0.5,2c0,0.876 0.5,2.00195 2.5,2.00195c0.828,0 1.5,0.672 1.5,1.5c0,0.828 -0.672,1.5 -1.5,1.5c-6.125,0 -6.5,-3.25 -6.5,-4c0,-0.871 0.0735,-1.452 0.3125,-2.125c0.054,-0.152 3.57252,-7.40361 3.60352,-7.47461c0.059,-0.135 0.08598,-0.27411 0.08398,-0.41211c-0.005,-0.38 -0.22761,-0.7413 -0.59961,-0.9043c-0.506,-0.222 -1.09541,0.00867 -1.31641,0.51367c0,0 -4.54552,9.92861 -4.72852,10.34961c-0.385,0.886 -1.41573,1.29225 -2.30273,0.90625c-0.665,-0.289 -1.06169,-0.94105 -1.05469,-1.62305c0.002,-0.227 0.05048,-0.45769 0.14648,-0.67969c0.196,-0.451 2.7802,-7.10037 2.7832,-7.10937c0.045,-0.118 0.07031,-0.24586 0.07031,-0.38086c0.002,-0.585 -0.47355,-1.06055 -1.06055,-1.06055c-0.455,0 -0.84314,0.28745 -0.99414,0.68945c-0.743,1.944 -3.59409,9.50441 -3.87109,10.31641c-0.419,1.228 -1.58547,1.98414 -2.85547,1.99414c-0.352,0.003 -0.71145,-0.04016 -1.06445,-0.16016c-1.631,-0.556 -2.51937,-2.2777 -1.98437,-3.8457c0.394,-1.157 3.19464,-10.177 3.55664,-11.375c0.476,-1.573 1.58984,-2.61914 3.83984,-2.61914c1.625,0 2.86133,1 3.86133,1c0.766,0 1.51563,-2 3.51563,-2zM49,20c-0.55228,0 -1,0.44772 -1,1c0,0.55228 0.44772,1 1,1c0.55228,0 1,-0.44772 1,-1c0,-0.55228 -0.44772,-1 -1,-1zM2,21c-1.10457,0 -2,0.89543 -2,2c0,1.10457 0.89543,2 2,2c1.10457,0 2,-0.89543 2,-2c0,-1.10457 -0.89543,-2 -2,-2zM46.5,25c-0.82843,0 -1.5,0.67157 -1.5,1.5c0,0.82843 0.67157,1.5 1.5,1.5c0.82843,0 1.5,-0.67157 1.5,-1.5c0,-0.82843 -0.67157,-1.5 -1.5,-1.5zM8,39c-0.55228,0 -1,0.44772 -1,1c0,0.55228 0.44772,1 1,1c0.55228,0 1,-0.44772 1,-1c0,-0.55228 -0.44772,-1 -1,-1zM38,42c-1.10457,0 -2,0.89543 -2,2c0,1.10457 0.89543,2 2,2c1.10457,0 2,-0.89543 2,-2c0,-1.10457 -0.89543,-2 -2,-2zM23.5,46c-0.82843,0 -1.5,0.67157 -1.5,1.5c0,0.82843 0.67157,1.5 1.5,1.5c0.82843,0 1.5,-0.67157 1.5,-1.5c0,-0.82843 -0.67157,-1.5 -1.5,-1.5z"></path></g></g></svg>